<svg width="32" height="32" viewBox="0 0 32 32" fill="none" xmlns="http://www.w3.org/2000/svg">
<path d="M5.57733 26.2933C6.17387 26.8906 6.88258 27.3643 7.66273 27.6869C8.44288 28.0096 9.2791 28.1749 10.1233 28.1734C10.9678 28.1749 11.8042 28.0095 12.5845 27.6869C13.3649 27.3642 14.0738 26.8906 14.6706 26.2933L18.3074 22.6552L16.489 20.8368L12.8522 24.4749C12.1275 25.1963 11.1466 25.6013 10.124 25.6013C9.10139 25.6013 8.12043 25.1963 7.39573 24.4749C6.67365 23.7505 6.26818 22.7694 6.26818 21.7466C6.26818 20.7238 6.67365 19.7427 7.39573 19.0184L11.0338 15.3816L9.21542 13.5632L5.57733 17.2C4.37339 18.4068 3.69727 20.0419 3.69727 21.7466C3.69727 23.4513 4.37339 25.0864 5.57733 26.2933ZM25.5823 15.3816C26.7856 14.1744 27.4613 12.5394 27.4613 10.8349C27.4613 9.13043 26.7856 7.49546 25.5823 6.28827C24.3755 5.08433 22.7404 4.4082 21.0357 4.4082C19.331 4.4082 17.6959 5.08433 16.489 6.28827L12.8522 9.92636L14.6706 11.7448L18.3074 8.10667C19.0321 7.38521 20.0131 6.98018 21.0357 6.98018C22.0583 6.98018 23.0392 7.38521 23.7639 8.10667C24.486 8.83104 24.8915 9.81212 24.8915 10.8349C24.8915 11.8577 24.486 12.8388 23.7639 13.5632L20.1258 17.2L21.9442 19.0184L25.5823 15.3816Z" fill="#888888"/>
<path d="M11.0326 22.6591L9.21289 20.8407L20.1272 9.92773L21.9456 11.7474L11.0326 22.6591Z" fill="#888888"/>
</svg>
