<svg width="125" height="130" viewBox="0 0 125 130" fill="none" xmlns="http://www.w3.org/2000/svg">
  <path d="M14.0324 37.6488C31.4677 26.0006 51.3948 19.3492 71.7712 26.0731C90.1632 32.1422 101.057 48.6831 87.4119 67.6779C80.9527 76.6697 67.9169 82.5047 58.2318 76.6626C47.4418 70.1539 57.0011 55.709 64.3443 51.7904C81.495 42.6377 104.622 48.5676 115.069 68.7028C127.441 92.5475 103.791 102.81 103.785 102.621" stroke="black" stroke-width="3.37884" stroke-miterlimit="1.5" stroke-linecap="round" stroke-linejoin="round"/>
  <path d="M18.9849 12.967C19.4627 15.4208 18.9809 17.8254 18.6103 20.2525C17.3942 28.2222 13.8051 36.371 7.88648 41.3221C15.4773 38.4702 26.1924 37.6274 32.6203 43.6977" stroke="black" stroke-width="3.37884" stroke-miterlimit="1.5" stroke-linecap="round" stroke-linejoin="round"/>
</svg>  
