<svg width="20" height="18" viewBox="0 0 20 18" fill="none" xmlns="http://www.w3.org/2000/svg">
  <path d="M18.4538 5.03291C19.4148 7.62671 17.7817 9.52764 9.62799 16.7C4.83303 11.4403 0.999644 9.81454 1 4.55489C3.68555 -0.226763 9.62794 0.729556 9.62815 2.97349C12.508 -0.704952 17.9743 1.20765 18.4538 5.03291Z" fill="currentColor"/>
  <path d="M17.7263 2.48553C16.7733 1.53256 15.5117 1.0117 14.1652 1.0117C12.8186 1.0117 11.5532 1.53641 10.6002 2.48939L10.1025 2.9871L9.59704 2.48168C8.64407 1.5287 7.37471 1.00012 6.0282 1.00012C4.68554 1.00012 3.42005 1.52484 2.47093 2.47396C1.51795 3.42694 0.993233 4.69243 0.997091 6.03895C0.997091 7.38546 1.52567 8.6471 2.47864 9.60007L9.72436 16.8458C9.82468 16.9461 9.95972 17.0001 10.0909 17.0001C10.2221 17.0001 10.3571 16.95 10.4574 16.8497L17.7186 9.61551C18.6716 8.66253 19.1963 7.39704 19.1963 6.05052C19.2001 4.704 18.6793 3.43851 17.7263 2.48553ZM16.9855 8.87859L10.0909 15.7462L3.2117 8.86701C2.4555 8.1108 2.03881 7.10767 2.03881 6.03895C2.03881 4.97022 2.45164 3.96709 3.20785 3.21474C3.9602 2.46238 4.96333 2.0457 6.0282 2.0457C7.09692 2.0457 8.10392 2.46238 8.86012 3.21859L9.73208 4.09055C9.93657 4.29503 10.2645 4.29503 10.469 4.09055L11.3332 3.22631C12.0894 2.4701 13.0964 2.05341 14.1613 2.05341C15.2262 2.05341 16.2293 2.4701 16.9855 3.22245C17.7417 3.97866 18.1546 4.9818 18.1546 6.05052C18.1584 7.11924 17.7417 8.12238 16.9855 8.87859Z" fill="currentColor" stroke="#888888" stroke-width="1.13"/>
</svg>  
